<svg xmlns="http://www.w3.org/2000/svg" xmlns:xlink="http://www.w3.org/1999/xlink" width="42" height="42" viewBox="0 0 42 42"><defs><path id="8ihwa" d="M670 1056.78c0 .68-.55 1.22-1.22 1.22h-29.25a1.22 1.22 0 1 1 0-2.44h29.25c.67 0 1.22.55 1.22 1.22zm0-24.37v4.87a15.84 15.84 0 0 1-29.25 8.42v.11h-2.44a7.31 7.31 0 0 1-7.31-7.31v-4.88a2.44 2.44 0 0 1 2.44-2.43h35.34c.67 0 1.22.54 1.22 1.22zm-30.47 10.96a15.78 15.78 0 0 1-1.22-6.09v-3.66h-3.65c-.68 0-1.22.55-1.22 1.22v3.66c0 2.7 2.18 4.87 4.87 4.87zm28.03-9.75h-26.81v3.66a13.4 13.4 0 1 0 26.81 0zm-14.62-6.09v-7.31a1.22 1.22 0 1 1 2.43 0v7.31a1.22 1.22 0 1 1-2.43 0zm-7.32 0v-4.87a1.22 1.22 0 1 1 2.44 0v4.87a1.22 1.22 0 1 1-2.44 0zm14.63 0v-2.44a1.22 1.22 0 1 1 2.44 0v2.44a1.22 1.22 0 1 1-2.44 0z"/></defs><g><g transform="translate(-629 -1017)"><use fill="#ececec" xlink:href="#8ihwa"/><use fill="#ececec" xlink:href="#8ihwa"/></g></g></svg>