<svg xmlns="http://www.w3.org/2000/svg" xmlns:xlink="http://www.w3.org/1999/xlink" width="27" height="27" viewBox="0 0 27 27"><defs><path id="xzira" d="M708.26 3307.27c0 .53-.43.95-.96.95h-16.82a.95.95 0 0 1-.96-.95v-10.12h2.22c-.2.64-.32 1.34-.32 2.04 0 4 3.37 7.24 7.5 7.24 4.16 0 7.53-3.24 7.53-7.24 0-.7-.11-1.4-.32-2.04h2.13zm-4.47-8.33a4.77 4.77 0 0 1-4.86 4.68 4.76 4.76 0 0 1-4.85-4.68 4.76 4.76 0 0 1 4.85-4.67c2.69 0 4.86 2.1 4.86 4.67zm4.47-5.62c0 .6-.5 1.08-1.09 1.08h-2.74c-.6 0-1.08-.49-1.08-1.08v-2.58c0-.6.49-1.08 1.08-1.08h2.74c.6 0 1.09.49 1.09 1.08zm2.73-3.25a3.1 3.1 0 0 0-3.1-3.08h-17.96a3.1 3.1 0 0 0-3.1 3.08v17.84a3.1 3.1 0 0 0 3.1 3.08h17.96a3.1 3.1 0 0 0 3.1-3.08z"/></defs><g><g transform="translate(-685 -3285)"><use fill="#f5d76e" xlink:href="#xzira"/></g></g></svg>