<svg xmlns="http://www.w3.org/2000/svg" xmlns:xlink="http://www.w3.org/1999/xlink" width="28" height="23" viewBox="0 0 28 23"><defs><path id="djeca" d="M657.72 3291.37c-.9.39-1.9.67-2.92.78a5.04 5.04 0 0 0 2.23-2.78c-.97.58-2.07 1-3.22 1.22a5.09 5.09 0 0 0-8.67 4.6 14.47 14.47 0 0 1-10.48-5.28 5.03 5.03 0 0 0 1.57 6.75 5.15 5.15 0 0 1-2.3-.64v.07a5.06 5.06 0 0 0 4.08 4.95 5.4 5.4 0 0 1-2.3.1c.65 2 2.52 3.44 4.76 3.5a10.22 10.22 0 0 1-7.54 2.09 14.43 14.43 0 0 0 7.8 2.26c9.35 0 14.46-7.69 14.46-14.36l-.01-.65c.99-.72 1.85-1.61 2.54-2.61z"/></defs><g><g transform="translate(-631 -3287)"><use fill="#fff" xlink:href="#djeca"/></g></g></svg>